<?xml version="1.0" encoding="UTF-8"?>
<!DOCTYPE svg PUBLIC "-//W3C//DTD SVG 1.1//EN" "http://www.w3.org/Graphics/SVG/1.1/DTD/svg11.dtd">
<!-- Creator: CorelDRAW 2020 (64 Bit) -->
<svg xmlns="http://www.w3.org/2000/svg" xml:space="preserve" width="45.4697mm" height="5.6004mm" version="1.1" style="shape-rendering:geometricPrecision; text-rendering:geometricPrecision; image-rendering:optimizeQuality; fill-rule:evenodd; clip-rule:evenodd"
viewBox="0 0 3616.38 445.42"
 xmlns:xlink="http://www.w3.org/1999/xlink"
 xmlns:xodm="http://www.corel.com/coreldraw/odm/2003">
 <defs>
  <style type="text/css">
   <![CDATA[
    .fil1 {fill:#2EBF18;fill-rule:nonzero}
    .fil0 {fill:white;fill-rule:nonzero}
   ]]>
  </style>
 </defs>
 <g id="Camada_x0020_1">
  <metadata id="CorelCorpID_0Corel-Layer"/>
  <g id="_2690982573648">
   <path class="fil0" d="M-0 231.05c0,-41.29 8.93,-78.11 26.79,-110.46 17.86,-32.35 42.77,-57.56 74.73,-75.62 31.96,-18.07 68.18,-27.1 108.68,-27.1 49.62,0 92.1,13.1 127.43,39.3 35.34,26.21 58.96,61.93 70.86,107.19l-111.95 0c-8.34,-17.47 -20.15,-30.76 -35.43,-39.89 -15.29,-9.13 -32.65,-13.7 -52.1,-13.7 -31.36,0 -56.77,10.92 -76.23,32.75 -19.45,21.83 -29.17,51.01 -29.17,87.54 0,36.52 9.72,65.7 29.17,87.54 19.45,21.84 44.87,32.75 76.23,32.75 19.45,0 36.82,-4.57 52.1,-13.7 15.29,-9.13 27.1,-22.43 35.43,-39.89l111.95 0c-11.91,45.25 -35.53,80.89 -70.86,106.89 -35.33,26.01 -77.81,39 -127.43,39 -40.5,0 -76.72,-9.03 -108.68,-27.09 -31.96,-18.06 -56.87,-43.18 -74.73,-75.33 -17.86,-32.16 -26.79,-68.88 -26.79,-110.16zm450.77 42.88c0,-34.14 6.46,-64.11 19.36,-89.92 12.9,-25.8 30.47,-45.65 52.7,-59.55 22.23,-13.89 47.04,-20.85 74.44,-20.85 23.42,0 43.97,4.76 61.63,14.29 17.66,9.53 31.26,22.04 40.79,37.52l0 -47.04 101.83 0 0 332.28 -101.83 0 0 -47.04c-9.93,15.49 -23.72,27.99 -41.39,37.52 -17.66,9.53 -38.21,14.29 -61.63,14.29 -26.99,0 -51.61,-7.05 -73.84,-21.14 -22.23,-14.09 -39.8,-34.14 -52.7,-60.14 -12.9,-26 -19.36,-56.07 -19.36,-90.22zm248.92 0.6c0,-25.41 -7.05,-45.46 -21.14,-60.14 -14.09,-14.69 -31.26,-22.04 -51.51,-22.04 -20.25,0 -37.42,7.25 -51.51,21.74 -14.09,14.49 -21.14,34.44 -21.14,59.85 0,25.4 7.05,45.56 21.14,60.44 14.09,14.89 31.26,22.33 51.51,22.33 20.24,0 37.41,-7.34 51.51,-22.03 14.09,-14.69 21.14,-34.74 21.14,-60.14zm378.14 -169.72c38.9,0 69.97,12.61 93.19,37.82 23.22,25.2 34.84,59.84 34.84,103.91l0 194.13 -101.23 0 0 -180.43c0,-22.23 -5.76,-39.5 -17.27,-51.81 -11.51,-12.3 -26.99,-18.46 -46.45,-18.46 -19.45,0 -34.93,6.16 -46.45,18.46 -11.51,12.3 -17.27,29.58 -17.27,51.81l0 180.43 -101.83 0 0 -332.28 101.83 0 0 44.07c10.32,-14.69 24.22,-26.3 41.68,-34.84 17.47,-8.53 37.12,-12.8 58.96,-12.8zm178.64 169.12c0,-34.14 6.46,-64.11 19.36,-89.92 12.9,-25.8 30.47,-45.65 52.7,-59.55 22.23,-13.89 47.04,-20.85 74.44,-20.85 23.42,0 43.97,4.76 61.63,14.29 17.66,9.53 31.26,22.04 40.79,37.52l0 -47.04 101.83 0 0 332.28 -101.83 0 0 -47.04c-9.93,15.49 -23.72,27.99 -41.39,37.52 -17.66,9.53 -38.21,14.29 -61.63,14.29 -26.99,0 -51.61,-7.05 -73.84,-21.14 -22.23,-14.09 -39.8,-34.14 -52.7,-60.14 -12.9,-26 -19.36,-56.07 -19.36,-90.22zm248.92 0.6c0,-25.41 -7.05,-45.46 -21.14,-60.14 -14.09,-14.69 -31.26,-22.04 -51.51,-22.04 -20.25,0 -37.42,7.25 -51.51,21.74 -14.09,14.49 -21.14,34.44 -21.14,59.85 0,25.4 7.05,45.56 21.14,60.44 14.09,14.89 31.26,22.33 51.51,22.33 20.24,0 37.41,-7.34 51.51,-22.03 14.09,-14.69 21.14,-34.74 21.14,-60.14zm277.49 -274.52l0 440.66 -101.83 0 0 -440.66 101.83 0z"/>
   <path class="fil1" d="M2244.98 22.63l0 284.64c0,44.06 -12.41,78.01 -37.22,101.83 -24.81,23.82 -58.26,35.73 -100.34,35.73 -44.06,0 -79.4,-12.5 -105.99,-37.52 -26.6,-25.01 -39.89,-60.54 -39.89,-106.59l101.23 0c0,17.47 3.57,30.67 10.72,39.6 7.14,8.93 17.47,13.4 30.96,13.4 12.3,0 21.83,-3.97 28.58,-11.91 6.74,-7.94 10.12,-19.45 10.12,-34.53l0 -284.64 101.83 0zm61.93 251.3c0,-34.14 6.46,-64.11 19.36,-89.92 12.9,-25.8 30.47,-45.65 52.7,-59.55 22.23,-13.89 47.04,-20.85 74.44,-20.85 23.42,0 43.97,4.76 61.63,14.29 17.66,9.53 31.26,22.04 40.79,37.52l0 -47.04 101.83 0 0 332.28 -101.83 0 0 -47.04c-9.93,15.49 -23.72,27.99 -41.39,37.52 -17.66,9.53 -38.21,14.29 -61.63,14.29 -26.99,0 -51.61,-7.05 -73.84,-21.14 -22.23,-14.09 -39.8,-34.14 -52.7,-60.14 -12.9,-26 -19.36,-56.07 -19.36,-90.22zm248.92 0.6c0,-25.41 -7.05,-45.46 -21.14,-60.14 -14.09,-14.69 -31.26,-22.04 -51.51,-22.04 -20.25,0 -37.42,7.25 -51.51,21.74 -14.09,14.49 -21.14,34.44 -21.14,59.85 0,25.4 7.05,45.56 21.14,60.44 14.09,14.89 31.26,22.33 51.51,22.33 20.24,0 37.41,-7.34 51.51,-22.03 14.09,-14.69 21.14,-34.74 21.14,-60.14zm325.13 70.86l72.05 -237 108.38 0 -117.91 332.28 -125.64 0 -117.91 -332.28 108.97 0 72.06 237zm203.06 -71.45c0,-34.14 6.46,-64.11 19.36,-89.92 12.9,-25.8 30.47,-45.65 52.7,-59.55 22.23,-13.89 47.04,-20.85 74.44,-20.85 23.42,0 43.97,4.76 61.63,14.29 17.66,9.53 31.26,22.04 40.79,37.52l0 -47.04 101.83 0 0 332.28 -101.83 0 0 -47.04c-9.93,15.49 -23.72,27.99 -41.39,37.52 -17.66,9.53 -38.21,14.29 -61.63,14.29 -26.99,0 -51.61,-7.05 -73.84,-21.14 -22.23,-14.09 -39.8,-34.14 -52.7,-60.14 -12.9,-26 -19.36,-56.07 -19.36,-90.22zm248.92 0.6c0,-25.41 -7.05,-45.46 -21.14,-60.14 -14.09,-14.69 -31.26,-22.04 -51.51,-22.04 -20.25,0 -37.42,7.25 -51.51,21.74 -14.09,14.49 -21.14,34.44 -21.14,59.85 0,25.4 7.05,45.56 21.14,60.44 14.09,14.89 31.26,22.33 51.51,22.33 20.24,0 37.41,-7.34 51.51,-22.03 14.09,-14.69 21.14,-34.74 21.14,-60.14zm223.31 170.9c-17.86,0 -32.46,-5.26 -43.77,-15.78 -11.32,-10.52 -16.97,-23.53 -16.97,-39 0,-15.88 5.65,-29.18 16.97,-39.9 11.31,-10.71 25.9,-16.07 43.77,-16.07 17.47,0 31.85,5.36 43.17,16.07 11.32,10.72 16.97,24.02 16.97,39.9 0,15.48 -5.65,28.48 -16.97,39 -11.32,10.52 -25.71,15.78 -43.17,15.78z"/>
  </g>
 </g>
</svg>
